# xmcd
#
# Track frame offsets: 
#        150
#        14455
#        27179
#        39518
#        51028
#        63341
#        75528
#        84880
#        96676
#        105862
#        118380
#        130180
#        142305
#        153779
#        166661
#        179193
#        192410
#        205719
#        219714
#        232321
#
# Disc length: 3236 seconds
#
# Revision: 1
# Processed by: cddbd v1.5.2PL0 Copyright (c) Steve Scherf et al.
# Submitted via: ExactAudioCopy v0.99pb4
#
DISCID=1b0ca214
DTITLE=Various Artist - The History Of Country and Western [CD 17] (1949)
DYEAR=1900
DGENRE=Country
TTITLE0=Bill Haley - The Covered Wagon (1949)
TTITLE1=Johnny Bond - When The Work's All Done (1949)
TTITLE2=Floyd Tillman - Slippin' Around (1949)
TTITLE3=Eddie Kirk - Candy Kisses (1949)
TTITLE4=Leon Payne - I Love You Because (1949)
TTITLE5=Johnny Bond - Heart and Soul (1949)
TTITLE6=Johnny Bond - So Long To The Red River Valley (1949)
TTITLE7=Bill Haley - Wreck On The Highway (1949)
TTITLE8=Johnny Bond - Tumbling Tumbleweeds (1949)
TTITLE9=Leon Mc Auliffe - Panhandle Rag (1949)
TTITLE10=Curley Williams - Fiddlin' Boogie (1949)
TTITLE11=Molly O'day - Poor Ellen Smith (1949)
TTITLE12=The Stanley Brothers - The Fields Have Turned Brown (1949)
TTITLE13=Floyd Tillman - This Cold War With You (1949)
TTITLE14=George Morgan - Room Full Of Roses (1949)
TTITLE15=Little Jimmy Dickens - Country Boy (1949)
TTITLE16=Hank Williams - You're Gonna Change (1949)
TTITLE17=Tommy Duncan - Gamblin' Polkadot Blues (1949)
TTITLE18=Little Jimmy Dickens - Take An Old Cold 'Tater (1949)
TTITLE19=Hank Thompson - Whoa Sailor (1949)
EXTD=
EXTT0=
EXTT1=
EXTT2=
EXTT3=
EXTT4=
EXTT5=
EXTT6=
EXTT7=
EXTT8=
EXTT9=
EXTT10=
EXTT11=
EXTT12=
EXTT13=
EXTT14=
EXTT15=
EXTT16=
EXTT17=
EXTT18=
EXTT19=
PLAYORDER=
